<?xml version="1.0" encoding="utf-8"?>
<!-- Generator: Adobe Illustrator 18.1.1, SVG Export Plug-In . SVG Version: 6.00 Build 0)  -->
<svg version="1.1" id="Layer_1" xmlns="http://www.w3.org/2000/svg" xmlns:xlink="http://www.w3.org/1999/xlink" x="0px" y="0px"
	 viewBox="3.4 92.2 604.6 604.6" enable-background="new 3.4 92.2 604.6 604.6" xml:space="preserve">
<path d="M305.7,696.7C139.1,696.7,3.4,561.1,3.4,394.5S139.1,92.2,305.7,92.2S608,227.9,608,394.5S472.3,696.7,305.7,696.7
	 M305.7,133.3c-144,0-261.2,117.1-261.2,261.2s117.1,261.2,261.2,261.2s261.2-117.1,261.2-261.2S449.7,133.3,305.7,133.3"/>
<path d="M356.7,323.4c-15.5,0-30.3,4.6-42.7,12.1v-0.3l-105.4,69.2v-79.1h-41.1V481L276,409.6c2.8,42,37.7,75.7,80.7,75.7
	c44.5,0,81-36.2,81-81C437.4,359.5,401.2,323.4,356.7,323.4 M356.7,443.9c-21.9,0-39.9-17.9-39.9-39.9c0-21.9,17.9-39.9,39.9-39.9
	c21.9,0,39.9,17.9,39.9,39.9C396.6,426.3,378.6,443.9,356.7,443.9"/>
</svg>
