<?xml version="1.0" encoding="utf-8"?>
<!-- Generator: Adobe Illustrator 18.1.1, SVG Export Plug-In . SVG Version: 6.00 Build 0)  -->
<svg version="1.1" id="Layer_1" xmlns="http://www.w3.org/2000/svg" xmlns:xlink="http://www.w3.org/1999/xlink" x="0px" y="0px"
	 viewBox="0 0 198 198" enable-background="new 0 0 198 198" xml:space="preserve">
<path fill="#FFFFFF" d="M98.9,196.3c-53.9,0-97.8-43.9-97.8-97.8c0-53.9,43.9-97.8,97.8-97.8s97.8,43.9,97.8,97.8
	C196.7,152.4,152.8,196.3,98.9,196.3 M98.9,14c-46.6,0-84.5,37.9-84.5,84.5c0,46.6,37.9,84.5,84.5,84.5s84.5-37.9,84.5-84.5
	C183.4,51.9,145.5,14,98.9,14"/>
<path fill="#FFFFFF" d="M115.4,75.5c-5,0-9.8,1.5-13.8,3.9l0-0.1l-34.1,22.4V76.1H54.2v50.4l35.1-23.1c0.9,13.6,12.2,24.5,26.1,24.5
	c14.4,0,26.2-11.7,26.2-26.2C141.5,87.2,129.8,75.5,115.4,75.5 M115.4,114.5c-7.1,0-12.9-5.8-12.9-12.9c0-7.1,5.8-12.9,12.9-12.9
	c7.1,0,12.9,5.8,12.9,12.9C128.3,108.8,122.5,114.5,115.4,114.5"/>
</svg>
